<svg width="20" height="20" viewBox="0 0 20 20" fill="none" xmlns="http://www.w3.org/2000/svg">
<path d="M18.6667 0.25H1.33333C1.04602 0.25 0.770465 0.364137 0.567301 0.567301C0.364137 0.770465 0.25 1.04602 0.25 1.33333V18.6667C0.25 18.954 0.364137 19.2295 0.567301 19.4327C0.770465 19.6359 1.04602 19.75 1.33333 19.75H10.6663V12.21H8.13342V9.25792H10.6663V7.09125C10.6663 4.5725 12.2046 3.19992 14.4579 3.19992C15.2152 3.19775 15.9735 3.23675 16.7275 3.31583V5.9375H15.1729C13.9509 5.9375 13.7126 6.52033 13.7126 7.37292V9.2525H16.6343L16.2552 12.2046H13.7115V19.75H18.6667C18.954 19.75 19.2295 19.6359 19.4327 19.4327C19.6359 19.2295 19.75 18.954 19.75 18.6667V1.33333C19.75 1.04602 19.6359 0.770465 19.4327 0.567301C19.2295 0.364137 18.954 0.25 18.6667 0.25Z" fill="black"/>
</svg>
