<svg width="22" height="22" viewBox="0 0 22 22" fill="none" xmlns="http://www.w3.org/2000/svg">
<path fill-rule="evenodd" clip-rule="evenodd" d="M6.84291 0.977004C7.91816 0.927504 8.26099 0.916504 11 0.916504C13.739 0.916504 14.0818 0.928421 15.1562 0.977004C16.2305 1.02559 16.9638 1.197 17.6055 1.44542C18.2774 1.69934 18.887 2.09625 19.3912 2.60959C19.9045 3.11284 20.3005 3.7215 20.5535 4.39434C20.8028 5.036 20.9733 5.76934 21.0228 6.84184C21.0723 7.91892 21.0833 8.26175 21.0833 10.9998C21.0833 13.7388 21.0714 14.0817 21.0228 15.1569C20.9742 16.2294 20.8028 16.9628 20.5535 17.6044C20.3005 18.2773 19.9038 18.887 19.3912 19.391C18.887 19.9043 18.2774 20.3003 17.6055 20.5533C16.9638 20.8027 16.2305 20.9732 15.158 21.0227C14.0818 21.0722 13.739 21.0832 11 21.0832C8.26099 21.0832 7.91816 21.0713 6.84291 21.0227C5.77041 20.9741 5.03707 20.8027 4.39541 20.5533C3.7225 20.3003 3.11283 19.9037 2.60882 19.391C2.09584 18.8874 1.69886 18.2781 1.44557 17.6053C1.19716 16.9637 1.02666 16.2303 0.977156 15.1578C0.927656 14.0808 0.916656 13.7379 0.916656 10.9998C0.916656 8.26084 0.928573 7.918 0.977156 6.84367C1.02574 5.76934 1.19716 5.036 1.44557 4.39434C1.69924 3.72158 2.09652 3.11221 2.60974 2.60867C3.11303 2.0958 3.72209 1.69883 4.39449 1.44542C5.03616 1.197 5.76949 1.0265 6.84199 0.977004H6.84291ZM15.0746 2.792C14.0112 2.74342 13.6922 2.73334 11 2.73334C8.30774 2.73334 7.98874 2.74342 6.92541 2.792C5.94182 2.83692 5.40832 3.001 5.05266 3.13942C4.58241 3.32275 4.24599 3.54 3.89307 3.89292C3.55853 4.21838 3.30107 4.6146 3.13957 5.0525C3.00116 5.40817 2.83707 5.94167 2.79216 6.92525C2.74357 7.98859 2.73349 8.30759 2.73349 10.9998C2.73349 13.6921 2.74357 14.0111 2.79216 15.0744C2.83707 16.058 3.00116 16.5915 3.13957 16.9472C3.30091 17.3844 3.55849 17.7813 3.89307 18.1068C4.21849 18.4413 4.61541 18.6989 5.05266 18.8603C5.40832 18.9987 5.94182 19.1628 6.92541 19.2077C7.98874 19.2563 8.30682 19.2663 11 19.2663C13.6932 19.2663 14.0112 19.2563 15.0746 19.2077C16.0582 19.1628 16.5917 18.9987 16.9473 18.8603C17.4176 18.6769 17.754 18.4597 18.1069 18.1068C18.4415 17.7813 18.6991 17.3844 18.8604 16.9472C18.9988 16.5915 19.1629 16.058 19.2078 15.0744C19.2564 14.0111 19.2665 13.6921 19.2665 10.9998C19.2665 8.30759 19.2564 7.98859 19.2078 6.92525C19.1629 5.94167 18.9988 5.40817 18.8604 5.0525C18.6771 4.58225 18.4598 4.24584 18.1069 3.89292C17.7814 3.5584 17.3852 3.30095 16.9473 3.13942C16.5917 3.001 16.0582 2.83692 15.0746 2.792ZM9.71207 14.1083C10.4313 14.4077 11.2323 14.4481 11.978 14.2226C12.7238 13.9971 13.3681 13.5197 13.801 12.8719C14.2338 12.2241 14.4284 11.4461 14.3514 10.6708C14.2744 9.89556 13.9306 9.17106 13.3787 8.62109C13.027 8.26952 12.6016 8.00033 12.1333 7.83289C11.665 7.66545 11.1654 7.60392 10.6704 7.65273C10.1755 7.70155 9.69755 7.8595 9.27098 8.11521C8.84441 8.37091 8.47984 8.71802 8.20352 9.13153C7.9272 9.54505 7.746 10.0147 7.67296 10.5066C7.59993 10.9986 7.63688 11.5006 7.78115 11.9766C7.92542 12.4525 8.17343 12.8906 8.50732 13.2592C8.8412 13.6278 9.25266 13.9178 9.71207 14.1083ZM7.33516 7.335C7.81643 6.85373 8.38778 6.47196 9.0166 6.2115C9.64541 5.95104 10.3194 5.81698 11 5.81698C11.6806 5.81698 12.3546 5.95104 12.9834 6.2115C13.6122 6.47196 14.1835 6.85373 14.6648 7.335C15.1461 7.81628 15.5279 8.38763 15.7883 9.01644C16.0488 9.64526 16.1828 10.3192 16.1828 10.9998C16.1828 11.6805 16.0488 12.3544 15.7883 12.9832C15.5279 13.612 15.1461 14.1834 14.6648 14.6647C13.6928 15.6366 12.3746 16.1827 11 16.1827C9.62541 16.1827 8.30713 15.6366 7.33516 14.6647C6.36318 13.6927 5.81713 12.3744 5.81713 10.9998C5.81713 9.62526 6.36318 8.30698 7.33516 7.335ZM17.3323 6.58884C17.4516 6.47633 17.5471 6.34104 17.6131 6.19098C17.6791 6.04092 17.7144 5.87913 17.7168 5.71519C17.7192 5.55125 17.6887 5.38851 17.627 5.23658C17.5654 5.08465 17.4739 4.94664 17.358 4.83071C17.242 4.71477 17.104 4.62328 16.9521 4.56165C16.8002 4.50001 16.6374 4.46948 16.4735 4.47187C16.3095 4.47426 16.1477 4.50952 15.9977 4.57556C15.8476 4.6416 15.7123 4.73707 15.5998 4.85634C15.381 5.08828 15.2612 5.39637 15.2659 5.71519C15.2705 6.03401 15.3992 6.33848 15.6247 6.56394C15.8502 6.78941 16.1546 6.91813 16.4735 6.92278C16.7923 6.92743 17.1004 6.80764 17.3323 6.58884Z" fill="black"/>
</svg>
