<svg width="65" height="20" viewBox="0 0 65 20" fill="none" xmlns="http://www.w3.org/2000/svg">
<path d="M32.0403 19.8115C37.5111 19.8115 41.946 15.3765 41.946 9.90573C41.946 4.43496 37.5111 0 32.0403 0C26.5695 0 22.1345 4.43496 22.1345 9.90573C22.1345 15.3765 26.5695 19.8115 32.0403 19.8115Z" fill="#394149"/>
<path d="M54.1841 19.8115C59.6549 19.8115 64.0898 15.3765 64.0898 9.90573C64.0898 4.43496 59.6549 0 54.1841 0C48.7133 0 44.2783 4.43496 44.2783 9.90573C44.2783 15.3765 48.7133 19.8115 54.1841 19.8115Z" fill="#394149"/>
<path d="M19.802 0H0V19.802H19.802V0Z" fill="#394149"/>
</svg>
