<svg width="31" height="21" viewBox="0 0 31 21" fill="none" xmlns="http://www.w3.org/2000/svg">
<path d="M0 19.2499C0 20.2164 0.783563 21 1.75014 21H29.2499C30.2164 21 31 20.2164 31 19.2499V19.2499C31 18.2833 30.2164 17.4997 29.2499 17.4997H1.75014C0.783563 17.4997 0 18.2833 0 19.2499V19.2499ZM0 10.5C0 11.4663 0.783379 12.2497 1.74973 12.2497H29.2503C30.2166 12.2497 31 11.4663 31 10.5V10.5C31 9.53365 30.2166 8.75027 29.2503 8.75027H1.74972C0.783378 8.75027 0 9.53365 0 10.5V10.5ZM1.75014 0C0.783563 0 0 0.783563 0 1.75014V1.75014C0 2.71671 0.783563 3.50027 1.75014 3.50027H29.2499C30.2164 3.50027 31 2.71671 31 1.75014V1.75014C31 0.783563 30.2164 0 29.2499 0H1.75014Z" fill="black"/>
</svg>
