<svg width="20" height="21" viewBox="0 0 20 21" fill="none" xmlns="http://www.w3.org/2000/svg">
<path d="M17.8571 0.4375H2.14286C0.959821 0.4375 0 1.40332 0 2.59375V18.4062C0 19.5967 0.959821 20.5625 2.14286 20.5625H17.8571C19.0402 20.5625 20 19.5967 20 18.4062V2.59375C20 1.40332 19.0402 0.4375 17.8571 0.4375ZM15.6741 7.57109C15.683 7.69688 15.683 7.82715 15.683 7.95293C15.683 11.8477 12.7366 16.3354 7.35268 16.3354C5.69196 16.3354 4.15179 15.8502 2.85714 15.0146C3.09375 15.0416 3.32143 15.0506 3.5625 15.0506C4.93304 15.0506 6.19196 14.5834 7.19643 13.7928C5.91071 13.7658 4.83036 12.9168 4.45982 11.7488C4.91071 11.8162 5.31696 11.8162 5.78125 11.6949C4.44196 11.4209 3.4375 10.235 3.4375 8.80195V8.76602C3.82589 8.98613 4.28125 9.1209 4.75893 9.13887C4.35733 8.87007 4.02812 8.50541 3.80066 8.07743C3.5732 7.64945 3.45457 7.17147 3.45536 6.68613C3.45536 6.13809 3.59821 5.63496 3.85268 5.19922C5.29464 6.98711 7.45982 8.15508 9.88839 8.28086C9.47321 6.28184 10.9598 4.66016 12.7455 4.66016C13.5893 4.66016 14.3482 5.01504 14.8839 5.59004C15.5446 5.46426 16.1786 5.21719 16.7411 4.88027C16.5223 5.56309 16.0625 6.13809 15.4554 6.50195C16.0446 6.43906 16.6161 6.27285 17.1429 6.04375C16.7455 6.63223 16.2455 7.15332 15.6741 7.57109Z" fill="black"/>
</svg>
